<svg width="272" height="277" viewBox="0 0 272 277" fill="none" xmlns="http://www.w3.org/2000/svg">
<g filter="url(#filter0_d_9_566)">
<rect y="16.6499" width="256" height="256" fill="#84F976" shape-rendering="crispEdges"/>
<rect x="3" y="19.6499" width="250" height="250" stroke="black" stroke-width="6" shape-rendering="crispEdges"/>
<rect x="32" y="48.6499" width="192" height="192" fill="white"/>
<rect x="32" y="48.6499" width="192" height="192" stroke="black" stroke-width="4"/>
<rect x="64" y="80.6499" width="22.4" height="22.4" fill="black"/>
<rect x="90.4" y="80.6499" width="22.4" height="22.4" fill="black"/>
<rect x="116.8" y="80.6499" width="22.4" height="22.4" fill="black"/>
<rect x="169.6" y="80.6499" width="22.4" height="22.4" fill="black"/>
<rect x="64" y="107.05" width="22.4" height="22.4" fill="black"/>
<rect x="116.8" y="107.05" width="22.4" height="22.4" fill="black"/>
<rect x="143.2" y="107.05" width="22.4" height="22.4" fill="black"/>
<rect x="64" y="133.45" width="22.4" height="22.4" fill="black"/>
<rect x="90.4" y="133.45" width="22.4" height="22.4" fill="black"/>
<rect x="116.8" y="133.45" width="22.4" height="22.4" fill="black"/>
<rect x="169.6" y="133.45" width="22.4" height="22.4" fill="black"/>
<rect x="90.4" y="159.85" width="22.4" height="22.4" fill="black"/>
<rect x="143.2" y="159.85" width="22.4" height="22.4" fill="black"/>
<rect x="169.6" y="159.85" width="22.4" height="22.4" fill="black"/>
<rect x="64" y="186.25" width="22.4" height="22.4" fill="black"/>
<rect x="116.8" y="186.25" width="22.4" height="22.4" fill="black"/>
<rect x="143.2" y="186.25" width="22.4" height="22.4" fill="black"/>
<rect x="169.6" y="186.25" width="22.4" height="22.4" fill="black"/>
<rect x="38" y="54.6499" width="180" height="180" stroke="black" stroke-width="8"/>
<rect width="66.3918" height="23" transform="translate(202.728) rotate(12)" fill="black"/>
<path d="M207.611 16.373L210.866 9.9085L213.116 10.3867L213.46 17.6163L212.13 17.3335L212.078 15.7482L209.633 15.2284L208.941 16.6557L207.611 16.373ZM210.19 14.0995L212.029 14.4904L211.906 10.9782L211.73 10.9408L210.19 14.0995ZM216.796 18.4685C216.235 18.3492 215.776 18.1443 215.419 17.8537C215.061 17.563 214.817 17.2044 214.686 16.7779C214.555 16.3514 214.545 15.8773 214.656 15.3556L215.6 10.9148L216.891 11.1892L215.939 15.6692C215.85 16.0865 215.899 16.4411 216.086 16.733C216.273 17.0248 216.591 17.2186 217.041 17.3142C217.491 17.4099 217.861 17.3624 218.15 17.1717C218.439 16.981 218.628 16.677 218.717 16.2596L219.669 11.7797L220.96 12.0542L220.017 16.4949C219.906 17.0166 219.704 17.4457 219.411 17.7821C219.118 18.1185 218.749 18.3468 218.304 18.467C217.859 18.5872 217.357 18.5877 216.796 18.4685ZM222.342 19.5041L223.548 13.8309L221.552 13.4067L221.802 12.233L227.084 13.3557L226.834 14.5295L224.839 14.1053L223.633 19.7786L222.342 19.5041ZM228.866 21.0341C228.005 20.8511 227.371 20.4692 226.963 19.8883C226.555 19.3074 226.444 18.5768 226.631 17.6965L226.981 16.0532C227.168 15.1729 227.566 14.5504 228.175 14.1857C228.784 13.8211 229.519 13.7302 230.38 13.9132C231.241 14.0961 231.875 14.4781 232.283 15.0589C232.691 15.6398 232.802 16.3704 232.615 17.2508L232.265 18.8941C232.078 19.7744 231.68 20.3969 231.071 20.7615C230.462 21.1262 229.727 21.217 228.866 21.0341ZM229.112 19.8799C229.594 19.9824 229.999 19.9219 230.326 19.6984C230.653 19.4748 230.866 19.1283 230.966 18.6587L231.332 16.9372C231.432 16.4677 231.378 16.0643 231.17 15.7271C230.962 15.3899 230.617 15.17 230.134 15.0674C229.658 14.9662 229.255 15.027 228.925 15.2499C228.595 15.4728 228.38 15.819 228.28 16.2885L227.914 18.0101C227.814 18.4796 227.87 18.8833 228.081 19.2212C228.292 19.5591 228.636 19.7787 229.112 19.8799ZM232.5 23.3196L232.737 22.2045L237.53 23.2233L237.293 24.3384L232.5 23.3196ZM241.25 23.6663C240.78 23.5665 240.377 23.37 240.041 23.077C239.704 22.784 239.467 22.4098 239.329 21.9544C239.19 21.499 239.183 20.9779 239.308 20.391L239.657 18.7477C239.845 17.8674 240.236 17.2435 240.832 16.8761C241.428 16.5087 242.15 16.415 242.998 16.5952C243.839 16.774 244.442 17.1356 244.807 17.68C245.172 18.2245 245.273 18.8781 245.111 19.6411L245.103 19.6802L243.831 19.4099L243.848 19.3317C243.899 19.0904 243.895 18.8612 243.835 18.6441C243.776 18.427 243.657 18.2399 243.479 18.0828C243.301 17.9257 243.059 17.8146 242.753 17.7494C242.296 17.6524 241.908 17.7164 241.587 17.9413C241.267 18.1663 241.055 18.5201 240.953 19.0026L240.595 20.685C240.494 21.1611 240.543 21.5719 240.742 21.9175C240.941 22.2631 241.276 22.4859 241.745 22.5857C242.215 22.6855 242.583 22.6343 242.851 22.4323C243.119 22.2302 243.293 21.9401 243.374 21.5619L243.394 21.464L241.771 21.1189L242.003 20.0234L244.899 20.6388L244.154 24.1406L242.961 23.8869L243.1 23.2316L242.924 23.1941C242.855 23.2953 242.757 23.3971 242.629 23.4995C242.502 23.6019 242.328 23.674 242.108 23.7158C241.888 23.7576 241.602 23.7411 241.25 23.6663ZM245.387 24.4025L246.842 17.5555L251.244 18.4911L250.994 19.6649L247.884 19.0037L247.537 20.6372L250.373 21.2402L250.124 22.414L247.287 21.811L246.928 23.5032L250.097 24.1768L249.847 25.3506L245.387 24.4025ZM250.806 25.5544L252.261 18.7073L254.716 19.2292L254.808 25.4849L254.984 25.5223L256.252 19.5556L257.524 19.8259L256.068 26.6729L253.613 26.1511L253.522 19.8954L253.346 19.858L252.077 25.8247L250.806 25.5544Z" fill="#84F976"/>
</g>
<defs>
<filter id="filter0_d_9_566" x="0" y="0" width="271.669" height="276.65" filterUnits="userSpaceOnUse" color-interpolation-filters="sRGB">
<feFlood flood-opacity="0" result="BackgroundImageFix"/>
<feColorMatrix in="SourceAlpha" type="matrix" values="0 0 0 0 0 0 0 0 0 0 0 0 0 0 0 0 0 0 127 0" result="hardAlpha"/>
<feOffset dx="4" dy="4"/>
<feComposite in2="hardAlpha" operator="out"/>
<feColorMatrix type="matrix" values="0 0 0 0 0 0 0 0 0 0 0 0 0 0 0 0 0 0 1 0"/>
<feBlend mode="normal" in2="BackgroundImageFix" result="effect1_dropShadow_9_566"/>
<feBlend mode="normal" in="SourceGraphic" in2="effect1_dropShadow_9_566" result="shape"/>
</filter>
</defs>
</svg>
